<?xml version="1.0" encoding="utf-8"?>
<svg xmlns="http://www.w3.org/2000/svg" viewBox="39.947 29.871 403.417 180.315" width="403.417px" height="180.315px">
  <g>
    <path class="cls-1" d="M 158.856 56.705 L 158.856 100.048 C 158.856 102.309 157.02 104.14 154.759 104.136 L 84.991 104.136 C 76.945 104.136 70.406 110.679 70.406 118.73 L 70.406 175.563 C 70.406 176.056 70.477 184.872 70.477 185.357 C 70.477 188.043 69.02 189.496 66.801 189.496 L 66.785 189.496 C 51.964 189.496 39.947 177.479 39.947 162.658 L 39.947 56.705 C 39.947 41.888 51.959 29.871 66.78 29.871 L 132.022 29.871 C 146.839 29.871 158.856 41.884 158.856 56.705" style="fill: rgb(122, 204, 0);"/>
    <path class="cls-2" d="M 206.157 159.365 C 210.131 159.365 213.306 156.266 213.306 152.136 C 213.306 148.005 209.331 145.222 205.201 145.222 L 196.54 145.222 L 196.54 159.365 L 206.152 159.365 L 206.157 159.365 Z M 205.045 136.481 C 209.096 136.481 211.879 133.302 211.879 129.332 C 211.879 125.361 209.1 122.578 205.045 122.578 L 196.544 122.578 L 196.544 136.485 L 205.045 136.485 L 205.045 136.481 Z M 186.291 114.633 C 186.291 113.837 186.927 113.121 187.803 113.121 L 205.997 113.121 C 215.453 113.121 222.763 119.479 222.763 127.82 C 222.763 133.938 217.757 138.704 214.022 140.456 C 218.232 141.807 224.35 146.098 224.35 153.407 C 224.35 162.308 216.721 168.742 207.028 168.742 L 187.799 168.742 C 186.923 168.742 186.287 168.026 186.287 167.23 L 186.287 114.629 L 186.291 114.633 Z" style="fill: rgb(51, 128, 66);"/>
    <path class="cls-2" d="M 258.674 138.468 C 262.885 138.468 266.54 134.814 266.54 130.363 C 266.54 126.153 262.885 122.654 258.674 122.654 L 245.723 122.654 L 245.723 138.464 L 258.674 138.464 L 258.674 138.468 Z M 235.314 114.633 C 235.314 113.837 235.95 113.121 236.826 113.121 L 259.55 113.121 C 269.083 113.121 276.872 120.751 276.872 130.203 C 276.872 137.513 272.026 143.475 265.112 146.254 L 275.996 166.435 C 276.552 167.466 275.996 168.738 274.645 168.738 L 266.304 168.738 C 265.588 168.738 265.192 168.342 265.032 168.022 L 254.464 146.965 L 245.643 146.965 L 245.643 167.226 C 245.643 168.022 244.927 168.738 244.131 168.738 L 236.822 168.738 C 235.946 168.738 235.31 168.022 235.31 167.226 L 235.31 114.624 L 235.314 114.633 Z" style="fill: rgb(51, 128, 66);"/>
    <path class="cls-2" d="M 315.327 149.753 L 307.381 132.271 L 307.141 132.271 L 299.356 149.753 L 315.327 149.753 Z M 281.003 166.679 L 305.714 113.201 C 305.954 112.725 306.35 112.325 307.066 112.325 L 307.861 112.325 C 308.657 112.325 308.973 112.721 309.213 113.201 L 333.689 166.679 C 334.164 167.71 333.529 168.746 332.337 168.746 L 325.423 168.746 C 324.232 168.746 323.676 168.27 323.12 167.159 L 319.226 158.578 L 295.466 158.578 L 291.571 167.159 C 291.255 167.955 290.539 168.746 289.268 168.746 L 282.354 168.746 C 281.163 168.746 280.527 167.715 281.003 166.679" style="fill: rgb(51, 128, 66);"/>
    <path class="cls-2" d="M 337.655 160.957 L 340.514 156.03 C 341.15 154.919 342.501 154.919 343.217 155.475 C 343.613 155.715 350.051 160.401 355.217 160.401 C 359.348 160.401 362.446 157.698 362.446 154.283 C 362.446 150.233 359.032 147.449 352.354 144.746 C 344.884 141.727 337.415 136.961 337.415 127.584 C 337.415 120.511 342.661 112.33 355.293 112.33 C 363.398 112.33 369.596 116.46 371.183 117.652 C 371.979 118.127 372.215 119.479 371.659 120.275 L 368.64 124.805 C 368.004 125.757 366.813 126.393 365.861 125.757 C 365.225 125.361 359.188 121.386 354.817 121.386 C 350.447 121.386 347.823 124.405 347.823 126.948 C 347.823 130.683 350.762 133.226 357.2 135.849 C 364.91 138.948 373.806 143.559 373.806 153.807 C 373.806 161.993 366.733 169.542 355.529 169.542 C 345.516 169.542 339.638 164.856 338.047 163.344 C 337.331 162.628 336.935 162.233 337.651 160.961" style="fill: rgb(51, 128, 66);"/>
    <path class="cls-2" d="M 385.486 113.121 L 392.876 113.121 C 393.709 113.121 394.387 113.799 394.387 114.633 L 394.387 167.235 C 394.387 168.068 393.709 168.746 392.876 168.746 L 385.486 168.746 C 384.653 168.746 383.975 168.068 383.975 167.235 L 383.975 114.633 C 383.975 113.799 384.653 113.121 385.486 113.121 Z" style="fill: rgb(51, 128, 66);"/>
    <path class="cls-2" d="M 408.846 114.633 C 408.846 113.837 409.482 113.121 410.358 113.121 L 417.667 113.121 C 418.463 113.121 419.179 113.837 419.179 114.633 L 419.179 159.209 L 439.44 159.209 C 440.316 159.209 440.951 159.925 440.951 160.721 L 440.951 167.235 C 440.951 168.03 440.316 168.746 439.44 168.746 L 410.358 168.746 C 409.482 168.746 408.846 168.03 408.846 167.235 L 408.846 114.633 Z" style="fill: rgb(51, 128, 66);"/>
    <path class="cls-1" d="M 205.837 74.06 C 210.287 74.06 214.022 70.486 214.022 65.795 C 214.022 61.425 210.287 58.086 205.837 58.086 L 196.62 58.086 L 196.62 74.056 L 205.837 74.056 L 205.837 74.06 Z M 186.291 49.825 C 186.291 49.029 186.927 48.313 187.803 48.313 L 206.477 48.313 C 216.249 48.313 224.274 56.258 224.274 65.875 C 224.274 75.492 216.249 83.753 206.557 83.753 L 196.624 83.753 L 196.624 102.426 C 196.624 103.222 195.908 103.938 195.112 103.938 L 187.803 103.938 C 186.927 103.938 186.291 103.222 186.291 102.426 L 186.291 49.825 Z" style="fill: rgb(122, 204, 0);"/>
    <path class="cls-1" d="M 257.883 94.401 C 267.895 94.401 276.161 86.216 276.161 76.203 C 276.161 66.191 267.895 57.85 257.883 57.85 C 247.87 57.85 239.689 66.195 239.689 76.203 C 239.689 86.212 247.874 94.401 257.883 94.401 M 257.883 47.521 C 273.773 47.521 286.489 60.313 286.489 76.208 C 286.489 92.102 273.777 104.734 257.883 104.734 C 241.988 104.734 229.357 92.098 229.357 76.208 C 229.357 60.317 241.992 47.521 257.883 47.521" style="fill: rgb(122, 204, 0);"/>
    <path class="cls-1" d="M 296.893 49.825 C 296.893 49.029 297.529 48.313 298.405 48.313 L 305.714 48.313 C 306.51 48.313 307.226 49.029 307.226 49.825 L 307.226 94.401 L 327.487 94.401 C 328.362 94.401 328.998 95.117 328.998 95.913 L 328.998 102.426 C 328.998 103.222 328.362 103.938 327.487 103.938 L 298.405 103.938 C 297.529 103.938 296.893 103.222 296.893 102.426 L 296.893 49.825 Z" style="fill: rgb(122, 204, 0);"/>
    <path class="cls-1" d="M 361.015 94.401 C 371.027 94.401 379.289 86.216 379.289 76.203 C 379.289 66.191 371.023 57.85 361.015 57.85 C 351.007 57.85 342.817 66.195 342.817 76.203 C 342.817 86.212 351.002 94.401 361.015 94.401 M 361.015 47.521 C 376.905 47.521 389.621 60.313 389.621 76.208 C 389.621 92.102 376.91 104.734 361.015 104.734 C 345.12 104.734 332.489 92.098 332.489 76.208 C 332.489 60.317 345.124 47.521 361.015 47.521" style="fill: rgb(122, 204, 0);"/>
    <path class="cls-2" d="M 186.291 203.218 L 186.291 203.18 C 186.291 199.327 189.176 196.173 193.26 196.173 C 195.774 196.173 197.285 197.045 198.582 198.283 L 197.054 200.043 C 195.95 199.037 194.809 198.38 193.243 198.38 C 190.687 198.38 188.793 200.489 188.793 203.142 L 188.793 203.18 C 188.793 205.832 190.67 207.98 193.264 207.98 C 194.91 207.98 195.992 207.323 197.155 206.237 L 198.683 207.786 C 197.31 209.277 195.702 210.186 193.188 210.186 C 189.239 210.186 186.3 207.108 186.3 203.218" style="fill: rgb(51, 128, 66);"/>
    <polygon class="cls-2" points="205.066 196.405 205.066 209.95 215.205 209.95 215.205 207.824 207.445 207.824 207.445 204.203 214.241 204.203 214.241 202.056 207.445 202.056 207.445 198.531 215.108 198.531 215.108 196.405 205.066 196.405" style="fill: rgb(51, 128, 66);"/>
    <polygon class="cls-2" points="231.369 196.405 231.369 205.769 224.11 196.405 221.904 196.405 221.904 209.95 224.245 209.95 224.245 200.312 231.719 209.95 233.71 209.95 233.71 196.405 231.369 196.405" style="fill: rgb(51, 128, 66);"/>
    <polygon class="cls-2" points="240.06 196.405 240.06 198.611 244.375 198.611 244.375 209.95 246.754 209.95 246.754 198.611 251.07 198.611 251.07 196.405 240.06 196.405" style="fill: rgb(51, 128, 66);"/>
    <path class="cls-2" d="M 263.285 203.121 C 264.986 203.121 266.072 202.249 266.072 200.856 L 266.072 200.818 C 266.072 199.348 265.045 198.573 263.268 198.573 L 259.803 198.573 L 259.803 203.121 L 263.285 203.121 Z M 257.42 196.405 L 263.457 196.405 C 265.158 196.405 266.497 196.906 267.365 197.761 C 268.081 198.514 268.489 199.504 268.489 200.683 L 268.489 200.721 C 268.489 202.948 267.154 204.283 265.276 204.822 L 268.935 209.95 L 266.11 209.95 L 262.784 205.226 L 259.803 205.226 L 259.803 209.95 L 257.424 209.95 L 257.424 196.401 L 257.42 196.405 Z" style="fill: rgb(51, 128, 66);"/>
    <path class="cls-2" d="M 286.354 203.218 L 286.354 203.18 C 286.354 200.548 284.455 198.38 281.748 198.38 C 279.041 198.38 277.179 200.51 277.179 203.142 L 277.179 203.18 C 277.179 205.811 279.074 207.98 281.786 207.98 C 284.497 207.98 286.354 205.849 286.354 203.218 M 274.687 203.218 L 274.687 203.18 C 274.687 199.386 277.63 196.173 281.79 196.173 C 285.95 196.173 288.855 199.327 288.855 203.142 L 288.855 203.18 C 288.855 206.973 285.912 210.186 281.752 210.186 C 277.592 210.186 274.687 207.032 274.687 203.218" style="fill: rgb(51, 128, 66);"/>
    <polygon class="cls-2" points="305.285 196.405 305.285 209.95 314.788 209.95 314.788 207.782 307.664 207.782 307.664 196.405 305.285 196.405" style="fill: rgb(51, 128, 66);"/>
    <path class="cls-2" d="M 331.356 203.218 L 331.356 203.18 C 331.356 200.548 329.457 198.38 326.75 198.38 C 324.042 198.38 322.181 200.51 322.181 203.142 L 322.181 203.18 C 322.181 205.811 324.076 207.98 326.788 207.98 C 329.499 207.98 331.356 205.849 331.356 203.218 M 319.685 203.218 L 319.685 203.18 C 319.685 199.386 322.628 196.173 326.788 196.173 C 330.948 196.173 333.853 199.327 333.853 203.142 L 333.853 203.18 C 333.853 206.973 330.91 210.186 326.75 210.186 C 322.59 210.186 319.685 207.032 319.685 203.218" style="fill: rgb(51, 128, 66);"/>
    <path class="cls-2" d="M 340.009 203.218 L 340.009 203.18 C 340.009 199.386 342.893 196.173 346.994 196.173 C 349.335 196.173 350.804 196.83 352.198 198.013 L 350.687 199.811 C 349.642 198.923 348.598 198.38 346.893 198.38 C 344.417 198.38 342.501 200.548 342.501 203.142 L 342.501 203.18 C 342.501 205.967 344.341 208.018 347.108 208.018 C 348.404 208.018 349.545 207.613 350.379 206.99 L 350.379 204.477 L 346.914 204.477 L 346.914 202.384 L 352.682 202.384 L 352.682 208.072 C 351.327 209.213 349.432 210.182 347.032 210.182 C 342.792 210.182 340.004 207.163 340.004 203.213" style="fill: rgb(51, 128, 66);"/>
    <path class="cls-2" d="M 359.79 209.95 L 362.169 209.95 L 362.169 196.401 L 359.79 196.401 L 359.79 209.95 Z M 360.059 195.281 L 361.878 195.281 L 364.354 193.403 L 362.223 192.472 L 360.055 195.281 L 360.059 195.281 Z" style="fill: rgb(51, 128, 66);"/>
    <path class="cls-2" d="M 368.75 207.975 L 370.181 206.274 C 371.499 207.416 372.775 208.034 374.459 208.034 C 375.929 208.034 376.859 207.34 376.859 206.333 L 376.859 206.296 C 376.859 205.348 376.316 204.784 373.802 204.224 C 370.918 203.546 369.293 202.658 369.293 200.178 L 369.293 200.14 C 369.293 197.816 371.23 196.211 373.916 196.211 C 375.907 196.211 377.44 196.809 378.834 197.912 L 377.558 199.71 C 376.32 198.801 375.12 198.317 373.882 198.317 C 372.489 198.317 371.676 199.011 371.676 199.925 L 371.676 199.963 C 371.676 201.007 372.295 201.474 374.91 202.093 C 377.756 202.83 379.246 203.799 379.246 206.06 L 379.246 206.098 C 379.246 208.653 377.255 210.144 374.409 210.144 C 372.316 210.144 370.383 209.449 368.758 207.975" style="fill: rgb(51, 128, 66);"/>
    <polygon class="cls-2" points="384.64 196.405 384.64 198.611 388.956 198.611 388.956 209.95 391.339 209.95 391.339 198.611 395.655 198.611 395.655 196.405 384.64 196.405" style="fill: rgb(51, 128, 66);"/>
    <rect class="cls-2" x="402.139" y="196.405" width="2.379" height="13.549" style="fill: rgb(51, 128, 66);"/>
    <path class="cls-2" d="M 411.406 203.218 L 411.406 203.18 C 411.406 199.327 414.29 196.173 418.375 196.173 C 420.893 196.173 422.4 197.045 423.697 198.283 L 422.168 200.043 C 421.065 199.037 419.924 198.38 418.354 198.38 C 415.798 198.38 413.903 200.489 413.903 203.142 L 413.903 203.18 C 413.903 205.832 415.781 207.98 418.375 207.98 C 420.021 207.98 421.103 207.323 422.265 206.237 L 423.794 207.786 C 422.421 209.277 420.813 210.186 418.299 210.186 C 414.349 210.186 411.41 207.108 411.41 203.218" style="fill: rgb(51, 128, 66);"/>
    <path class="cls-2" d="M 440.867 203.218 L 440.867 203.18 C 440.867 200.548 438.972 198.38 436.261 198.38 C 433.549 198.38 431.692 200.51 431.692 203.142 L 431.692 203.18 C 431.692 205.811 433.587 207.98 436.299 207.98 C 439.01 207.98 440.867 205.849 440.867 203.218 M 429.196 203.218 L 429.196 203.18 C 429.196 199.386 432.139 196.173 436.299 196.173 C 440.459 196.173 443.364 199.327 443.364 203.142 L 443.364 203.18 C 443.364 206.973 440.421 210.186 436.261 210.186 C 432.101 210.186 429.196 207.032 429.196 203.218" style="fill: rgb(51, 128, 66);"/>
    <path class="cls-2" d="M 136.275 189.504 L 82.873 189.504 C 80.945 189.504 79.387 187.942 79.387 186.018 L 79.387 122.936 C 79.387 117.504 83.791 113.1 89.222 113.1 L 155.239 113.1 C 157.163 113.1 158.725 114.662 158.725 116.586 L 158.725 167.054 C 158.725 179.454 148.675 189.504 136.275 189.504" style="fill: rgb(51, 128, 66);"/>
  </g>
</svg>